<svg width="697" height="371" xmlns="http://www.w3.org/2000/svg" xmlns:xlink="http://www.w3.org/1999/xlink" xml:space="preserve" overflow="hidden"><g transform="translate(-1608 -935)"><g><path d="M2272.49 1088.38 1698.74 1088.38 1767.01 997.55C1776.21 985.303 1776.21 965.912 1767.01 954.685 1757.8 942.439 1743.23 942.439 1734.79 954.685L1627.4 1097.57C1618.2 1109.81 1618.2 1129.21 1627.4 1140.43L1734.79 1283.31C1739.39 1289.44 1745.53 1292.5 1750.9 1292.5 1756.27 1292.5 1762.4 1289.44 1767.01 1283.31 1776.21 1271.07 1776.21 1251.68 1767.01 1240.45L1698.74 1149.62 2272.49 1149.62C2285.53 1149.62 2295.5 1136.35 2295.5 1119 2295.5 1101.65 2285.53 1088.38 2272.49 1088.38Z" stroke="#FE546E" stroke-width="19.3359" stroke-linecap="butt" stroke-linejoin="miter" stroke-miterlimit="8" stroke-opacity="1" fill="none" fill-rule="evenodd"/></g></g></svg>