<svg width="701" height="367" xmlns="http://www.w3.org/2000/svg" xmlns:xlink="http://www.w3.org/1999/xlink" xml:space="preserve" overflow="hidden"><g transform="translate(-1691 -1338)"><g><path d="M1726.51 1552.62 2300.26 1552.62 2231.99 1643.45C2222.79 1655.7 2222.79 1675.09 2231.99 1686.31 2241.2 1698.56 2255.77 1698.56 2264.21 1686.31L2371.6 1543.43C2380.8 1531.19 2380.8 1511.79 2371.6 1500.57L2264.21 1357.69C2259.61 1351.56 2253.47 1348.5 2248.1 1348.5 2242.73 1348.5 2236.6 1351.56 2231.99 1357.69 2222.79 1369.93 2222.79 1389.32 2231.99 1400.55L2300.26 1491.38 1726.51 1491.38C1713.47 1491.38 1703.5 1504.65 1703.5 1522 1703.5 1539.35 1713.47 1552.62 1726.51 1552.62Z" stroke="#FE546E" stroke-width="19.3359" stroke-linecap="butt" stroke-linejoin="miter" stroke-miterlimit="8" stroke-opacity="1" fill="none" fill-rule="evenodd"/></g></g></svg>