<svg width="170" height="168" xmlns="http://www.w3.org/2000/svg" xmlns:xlink="http://www.w3.org/1999/xlink" xml:space="preserve" overflow="hidden"><g transform="translate(-754 -346)"><g><g><g><g><path d="M83.5 17.3958C46.9688 17.3958 17.3958 46.9688 17.3958 83.5 17.3958 120.031 46.9688 149.604 83.5 149.604 120.031 149.604 149.604 120.031 149.604 83.5 149.604 46.9688 120.031 17.3958 83.5 17.3958ZM80.0208 34.7917C84.8917 34.7917 88.7188 38.6188 88.7188 43.4896 88.7188 48.3604 84.8917 52.1875 80.0208 52.1875 75.15 52.1875 71.3229 48.3604 71.3229 43.4896 71.3229 38.6188 75.15 34.7917 80.0208 34.7917ZM100.896 132.208 66.1042 132.208 66.1042 121.771 78.2812 121.771 78.2812 69.5833 67.8438 69.5833 67.8438 59.1458 88.7188 59.1458 88.7188 69.5833 88.7188 121.771 100.896 121.771 100.896 132.208Z" stroke="#FE546E" stroke-width="5.33334" stroke-linecap="butt" stroke-linejoin="miter" stroke-miterlimit="4" stroke-opacity="1" fill="none" fill-rule="nonzero" transform="matrix(1.00599 0 0 1 755 347)"/></g></g></g></g></g></svg>